
<svg xmlns="http://www.w3.org/2000/svg" version="1.1" xmlns:xlink="http://www.w3.org/1999/xlink" preserveAspectRatio="none" x="0px" y="0px" width="3840px" height="3840px" viewBox="0 0 3840 3840">
<defs>
<g id="Layer0_0_FILL">
<path fill="#F57C14" stroke="none" d="
M 3276.9 564.5
Q 3011.3 298.95 2666.4 153.05 2309.95 2.05 1919.55 2.05 1529.2 2.05 1172.1 153.05 827.85 298.95 562.25 564.5 296.05 830.05 150.8 1174.9 -0.25 1531.3 -0.25 1921.65 -0.25 2311.95 150.8 2669 296.05 3013.25 562.25 3278.8 827.85 3544.95 1172.1 3690.2 1529.2 3841.2 1919.55 3841.2 2309.95 3841.2 2666.4 3690.2 3011.3 3544.95 3276.9 3278.8 3542.45 3013.25 3688.35 2669 3839.4 2311.95 3839.4 1921.65 3839.4 1531.3 3688.35 1174.9 3542.45 830.05 3276.9 564.5
M 2937.7 903.6
Q 3136.75 1103.25 3246.15 1361.1 3359.45 1628.6 3359.45 1921.65 3359.45 2214.7 3246.15 2482.15 3136.75 2740.65 2937.7 2939.65 2738.05 3138.65 2480.15 3248.05 2212.65 3361.3 1919.55 3361.3 1626.5 3361.3 1359 3248.05 1100.45 3138.65 901.45 2939.65 701.75 2740.65 593 2482.15 479.7 2214.7 479.7 1921.65 479.7 1628.6 593 1361.1 702.4 1103.25 901.45 903.6 1100.45 704.6 1359 595.2 1626.5 481.95 1919.55 481.95 2212.05 481.95 2480.15 595.2 2738.05 704.6 2937.7 903.6
M 2058.6 2534
L 2058.6 2215.75 1782.35 2215.75 1782.35 2534 2058.6 2534
M 1557.45 1239.2
L 1595.85 1476.75
Q 1669.15 1463.55 1741.2 1454.25 1813.3 1445.85 1877.85 1445.85 1983.85 1445.85 2022.3 1480.65 2060.7 1515.1 2058.6 1579.6 2060.7 1627.3 2046.6 1663 2032.5 1698.4 1977.25 1748.15 1922 1797.65 1802.15 1886.45
L 1956.5 2097
Q 2090.45 2000.7 2167.3 1936.2 2244.2 1871.45 2280.85 1820.15 2316.25 1768.55 2326.45 1709.75 2336.1 1650.7 2335.2 1564.6 2337 1451.55 2301.25 1370.25 2264.9 1288.65 2172.1 1244.9 2079.35 1201.7 1908.75 1200.8 1821.7 1200.8 1738.5 1210.1 1655.95 1219.4 1557.45 1239.2 Z"/>

<path fill="#FFFFFF" stroke="none" d="
M 3246.15 1361.1
Q 3136.75 1103.25 2937.7 903.6 2738.05 704.6 2480.15 595.2 2212.05 481.95 1919.55 481.95 1626.5 481.95 1359 595.2 1100.45 704.6 901.45 903.6 702.4 1103.25 593 1361.1 479.7 1628.6 479.7 1921.65 479.7 2214.7 593 2482.15 701.75 2740.65 901.45 2939.65 1100.45 3138.65 1359 3248.05 1626.5 3361.3 1919.55 3361.3 2212.65 3361.3 2480.15 3248.05 2738.05 3138.65 2937.7 2939.65 3136.75 2740.65 3246.15 2482.15 3359.45 2214.7 3359.45 1921.65 3359.45 1628.6 3246.15 1361.1
M 2598.55 1243.4
Q 2731 1375.85 2803.95 1547.95 2879.5 1726.45 2879.5 1921.65 2879.5 2116.8 2803.95 2295.3 2731 2467.45 2598.55 2600.5 2465.45 2732.95 2293.3 2805.9 2114.75 2881.4 1919.55 2881.4 1724.4 2881.4 1545.85 2805.9 1373.7 2732.95 1240.6 2600.5 1108.15 2467.45 1035.2 2295.3 959.65 2116.8 959.65 1921.65 959.65 1726.45 1035.2 1547.95 1108.15 1375.85 1240.6 1243.4 1373.7 1110.3 1545.85 1037.35 1724.4 961.85 1919.55 961.85 2114.75 961.85 2293.3 1037.35 2465.45 1110.3 2598.55 1243.4 Z"/>

<path fill="#4F4C4D" stroke="none" d="
M 2803.95 1547.95
Q 2731 1375.85 2598.55 1243.4 2465.45 1110.3 2293.3 1037.35 2114.75 961.85 1919.55 961.85 1724.4 961.85 1545.85 1037.35 1373.7 1110.3 1240.6 1243.4 1108.15 1375.85 1035.2 1547.95 959.65 1726.45 959.65 1921.65 959.65 2116.8 1035.2 2295.3 1108.15 2467.45 1240.6 2600.5 1373.7 2732.95 1545.85 2805.9 1724.4 2881.4 1919.55 2881.4 2114.75 2881.4 2293.3 2805.9 2465.45 2732.95 2598.55 2600.5 2731 2467.45 2803.95 2295.3 2879.5 2116.8 2879.5 1921.65 2879.5 1726.45 2803.95 1547.95
M 1595.85 1476.75
L 1557.45 1239.2
Q 1655.95 1219.4 1738.5 1210.1 1821.7 1200.8 1908.75 1200.8 2079.35 1201.7 2172.1 1244.9 2264.9 1288.65 2301.25 1370.25 2337 1451.55 2335.2 1564.6 2336.1 1650.7 2326.45 1709.75 2316.25 1768.55 2280.85 1820.15 2244.2 1871.45 2167.3 1936.2 2090.45 2000.7 1956.5 2097
L 1802.15 1886.45
Q 1922 1797.65 1977.25 1748.15 2032.5 1698.4 2046.6 1663 2060.7 1627.3 2058.6 1579.6 2060.7 1515.1 2022.3 1480.65 1983.85 1445.85 1877.85 1445.85 1813.3 1445.85 1741.2 1454.25 1669.15 1463.55 1595.85 1476.75
M 2058.6 2215.75
L 2058.6 2534 1782.35 2534 1782.35 2215.75 2058.6 2215.75 Z"/>
</g>
</defs>

<g transform="matrix( 1.000091552734375, 0, 0, 1.0002288818359375, 0.25,-2.05) ">
<use xlink:href="#Layer0_0_FILL"/>
</g>
</svg>
