
<svg xmlns="http://www.w3.org/2000/svg" version="1.1" xmlns:xlink="http://www.w3.org/1999/xlink" preserveAspectRatio="none" x="0px" y="0px" width="640px" height="640px" viewBox="0 0 640 640">
<defs>
<g id="Layer1_0_FILL">
<path fill="#F57C14" stroke="none" d="
M 288.2 91.65
Q 276.8 64.7 256.05 43.95 235.3 23.2 208.35 11.8 180.5 0 150 0 119.5 0 91.6 11.8 64.7 23.2 43.95 43.95 23.15 64.7 11.8 91.65 0 119.5 0 150 0 180.5 11.8 208.4 23.15 235.3 43.95 256.05 64.7 276.85 91.6 288.2 119.5 300 150 300 180.5 300 208.35 288.2 235.3 276.85 256.05 256.05 276.8 235.3 288.2 208.4 300 180.5 300 150 300 119.5 288.2 91.65 Z"/>
</g>

<g id="Layer1_1_FILL">
<path fill="#FFFFFF" stroke="none" d="
M 229.55 70.45
Q 213.95 54.9 193.8 46.35 172.85 37.5 150 37.5 127.1 37.5 106.2 46.35 86 54.9 70.45 70.45 54.9 86.05 46.35 106.2 37.5 127.1 37.5 150 37.5 172.9 46.35 193.8 54.85 214 70.45 229.55 86 245.1 106.2 253.65 127.1 262.5 150 262.5 172.9 262.5 193.8 253.65 213.95 245.1 229.55 229.55 245.1 214 253.65 193.8 262.5 172.9 262.5 150 262.5 127.1 253.65 106.2 245.1 86.05 229.55 70.45 Z"/>
</g>

<g id="Layer1_2_FILL">
<path fill="#4F4C4D" stroke="none" d="
M 203.05 97
Q 192.65 86.6 179.2 80.9 165.25 75 150 75 134.75 75 120.8 80.9 107.35 86.6 96.95 97 86.6 107.35 80.9 120.8 75 134.75 75 150 75 165.25 80.9 179.2 86.6 192.65 96.95 203.05 107.35 213.4 120.8 219.1 134.75 225 150 225 165.25 225 179.2 219.1 192.65 213.4 203.05 203.05 213.4 192.65 219.1 179.2 225 165.25 225 150 225 134.75 219.1 120.8 213.4 107.35 203.05 97 Z"/>
</g>

<g id="Layer0_0_FILL">
<path fill="#F57C14" stroke="none" d="
M 297.25 417
L 343.25 417 343.25 363.95 297.25 363.95 297.25 417
M 341.25 271.8
Q 338.9 277.7 329.7 286 320.5 294.25 300.55 309.05
L 326.25 344.15
Q 348.55 328.1 361.35 317.35 374.15 306.55 380.25 298 386.15 289.4 387.85 279.6 389.45 269.75 389.3 255.4 389.6 236.55 383.65 223 377.6 209.4 362.15 202.1 346.7 194.9 318.3 194.75 303.8 194.75 289.95 196.3 276.2 197.85 259.8 201.15
L 266.2 240.75
Q 278.4 238.55 290.4 237 302.4 235.6 313.15 235.6 330.8 235.6 337.2 241.4 343.6 247.15 343.25 257.9 343.6 265.85 341.25 271.8 Z"/>
</g>
</defs>

<g transform="matrix( 2.1311187744140625, 0, 0, 2.1333465576171875, 0.45,0) ">
<use xlink:href="#Layer1_0_FILL"/>
</g>

<g transform="matrix( 2.1311187744140625, 0, 0, 2.1333465576171875, 0.45,0) ">
<use xlink:href="#Layer1_1_FILL"/>
</g>

<g transform="matrix( 2.1311187744140625, 0, 0, 2.1333465576171875, 0.45,0) ">
<use xlink:href="#Layer1_2_FILL"/>
</g>

<g transform="matrix( 1, 0, 0, 1, 0,5.1) ">
<use xlink:href="#Layer0_0_FILL"/>
</g>
</svg>
